PathFileType	4	(X/Y/Z)	C:/Users/beibeiliu/ov580/test_trc/User3\sequence.27_training_dense_left.trc
DataRate	CameraRate	NumFrames	NumMarkers	Units	OrigDataRate	OrigDataStartFrame	OrigNumFrames
120	120	23	19	mm	120	104	276
Frame#	Time	ThumbCMC			ThumbMCP			ThumbIP			ThumbTip			IndexMCP			IndexPIP			IndexTip			MiddleMCP			MiddlePIP			MiddleTip			RingMCP			RingPIP			RingTip			PinkyMCP			PinkyPIP			PinkyTip			BackHand1			BackHand2			BackHand3	
		X0	Y0	Z0	X1	Y1	Z1	X2	Y2	Z2	X3	Y3	Z3	X4	Y4	Z4	X5	Y5	Z5	X6	Y6	Z6	X7	Y7	Z7	X8	Y8	Z8	X9	Y9	Z9	X10	Y10	Z10	X11	Y11	Z11	X12	Y12	Z12	X13	Y13	Z13	X14	Y14	Z14	X15	Y15	Z15	X16	Y16	Z16	X17	Y17	Z17	X18	Y18	Z18	
103	0.858333	-204.331	-25.0432	-11.646	-197.38	-31.2472	-44.6435	-205.996	-38.3747	-74.8632	-229.666	-46.3973	-88.8028	-233.66	16.0268	-68.9468	-237.73	23.2891	-94.3761	-243.003	28.6378	-119.074	-252.657	10.8479	-74.7917	-253.853	17.2795	-103.87	-252.905	19.9019	-130.817	-256.368	-20.7935	-75.6255	-241.86	-45.5517	-86.0091	-230.119	-52.7662	-53.6725	-264.387	-41.5423	-64.648	-241.424	-58.2384	-63.4663	-233.091	-55.9936	-32.6789	-264.646	-11.2332	-19.8433	-259.599	-19.7417	8.69131	-233.993	-1.34723	-5.29127	
104	0.866667	-204.264	-32.4992	-10.6971	-201.208	-40.1858	-47.0311	-210.591	-48.3291	-76.3433	-236.713	-54.1502	-89.7406	-230.814	9.14609	-72.0331	-236.634	14.378	-98.875	-243.384	18.9638	-123.505	-252.422	3.70594	-77.1936	-251.301	9.63489	-104.578	-250.995	11.2789	-138.492	-259.327	-28.1289	-78.9896	-246.933	-52.0102	-86.9698	-233.095	-59.8339	-54.8257	-268.608	-44.2593	-61.1199	-247.652	-64.5086	-63.0987	-239.058	-64.3965	-33.0182	-266.521	-12.3686	-20.0851	-262.847	-22.2772	13.3025	-229.019	-6.53955	-5.26615	
105	0.875	-205.658	-36.8412	-14.7653	-201.176	-50.7114	-46.6823	-216.421	-57.9852	-73.6465	-233.815	-66.3013	-85.0224	-227.79	-0.720724	-76.1082	-235.05	1.47112	-99.1584	-239.693	7.02728	-127.653	-247.257	-3.28481	-79.6261	-249.524	-1.50741	-106.265	-249.289	-2.04954	-139.474	-259.883	-33.9812	-73.6925	-246.251	-63.5848	-83.8851	-234.674	-68.6198	-50.6714	-270.923	-54.5984	-60.8646	-251.568	-74.6823	-60.0129	-238.732	-68.7113	-34.2228	-260.997	-15.8766	-20.6046	-258.142	-22.9914	11.6205	-232.05	-11.1598	-11.2748	
106	0.883333	-199.822	-43.0631	-15.2406	-198.229	-62.0701	-46.2728	-216.449	-71.8855	-73.0437	-241.969	-79.3235	-82.7953	-229.35	-12.9914	-82.8475	-233.362	-12.2747	-105.956	-239.509	-12.4952	-129.755	-250.378	-15.5856	-85.4322	-250.555	-17.8702	-110.123	-254.191	-22.835	-142.948	-259.992	-45.5591	-73.4351	-252.002	-75.1177	-79.6223	-238.619	-80.4567	-49.4464	-267.219	-64.1516	-60.1613	-253.081	-86.0946	-52.7754	-240.621	-75.7341	-23.3334	-262.963	-23.3528	-23.3358	-256.65	-26.4806	11.4502	-225.911	-14.8531	-11.4302	
107	0.891667	-200.21	-49.3296	-13.3374	-201.695	-70.5393	-46.4002	-215.599	-84.7049	-66.4215	-239.44	-94.3247	-77.6779	-226.02	-27.2192	-82.7543	-232.147	-31.3248	-107.52	-239.529	-35.3383	-131.359	-249.452	-31.4291	-87.3856	-249.352	-36.4993	-114.211	-252.304	-45.1985	-140.135	-260.07	-60.9679	-72.2071	-253.058	-89.8348	-73.7723	-233.903	-89.6228	-43.8527	-267.315	-74.5133	-55.1241	-250.483	-93.5861	-47.4228	-237.632	-82.5886	-21.6453	-262.242	-29.5249	-23.4661	-254.027	-28.8701	9.73862	-225.583	-17.8635	-15.6116	
108	0.9	-196.374	-53.4854	-12.8167	-198.817	-78.2402	-40.2173	-210.46	-96.9674	-61.9072	-231.577	-108.422	-68.7951	-223.583	-41.2694	-84.4933	-228.543	-48.0797	-108.328	-232.345	-54.3896	-134.573	-244.184	-45.2711	-88.5993	-246.258	-55.0309	-115.135	-246.352	-66.3075	-142.665	-255.814	-77.0873	-71.1557	-246.693	-103.281	-67.0756	-229.632	-97.7602	-36.6927	-262.574	-87.1595	-49.4793	-243.748	-105.124	-37.3837	-230.723	-91.8335	-17.2113	-256.852	-36.1472	-25.3161	-251.411	-31.2497	5.45732	-224.138	-26.7921	-19.0316	
109	0.908333	-193.579	-55.8958	-12.9503	-186.394	-83.7168	-36.8507	-200.828	-104.143	-54.2821	-222.952	-118.023	-63.3758	-219.58	-54.3078	-84.5133	-219.401	-61.3326	-104.968	-221.535	-69.7802	-128.031	-237.245	-58.3465	-83.2957	-236.556	-68.4888	-112.271	-237.344	-82.0811	-136.558	-245.361	-87.6209	-67.3431	-230.621	-113.936	-58.718	-220.75	-106.751	-30.8396	-253.218	-100.083	-46.3869	-230.45	-111.191	-34.8681	-222.785	-96.8168	-9.64087	-253.945	-46.1119	-22.8518	-249.457	-36.2654	6.40285	-220.981	-29.3848	-17.0434	
110	0.916667	-184.773	-54.2653	-5.17955	-175.675	-85.3951	-31.46	-186.248	-107.874	-48.0553	-206.152	-121.538	-53.9413	-206.534	-61.1545	-81.0247	-206.182	-74.118	-104.275	-204.195	-81.6648	-123.953	-221.975	-72.2317	-84.7739	-219.705	-83.7796	-107.009	-216.118	-91.2492	-136.25	-228.381	-96.4577	-64.0261	-212.475	-120.609	-53.7877	-205.84	-108.623	-22.5254	-236.996	-106.59	-43.8864	-216.252	-117.24	-30.4144	-210.392	-99.5698	-9.38345	-248.25	-55.696	-24.0438	-248.022	-44.6956	5.64721	-217.123	-32.8687	-17.3014	
111	0.925	-178.779	-51.4813	-2.1173	-161.875	-78.6461	-18.4421	-163.712	-104.202	-37.6236	-178.034	-125.039	-46.3842	-189.426	-63.5598	-77.9342	-185.2	-75.4607	-99.0274	-178.139	-90.7263	-121.523	-198.318	-83.2392	-80.4303	-193.796	-94.3932	-91.7605	-195.229	-92.9473	-117.697	-207.7	-104.579	-58.8229	-189.005	-123.47	-45.232	-187.748	-105.604	-16.7479	-220.401	-113.729	-40.4817	-196.469	-123.346	-26.1978	-194.564	-99.4297	-0.902017	-234.73	-64.198	-30.3922	-240.161	-51.3707	2.13613	-213.98	-38.5661	-15.5368	
112	0.933333	-167.601	-44.9408	3.60758	-144.793	-73.1805	-12.1883	-140.568	-98.4722	-27.5714	-152.753	-122.905	-35.8082	-168.63	-60.0555	-73.514	-155.085	-72.8093	-98.628	-141.242	-91.504	-114.258	-174.802	-89.0638	-70.9623	-156.505	-95.8721	-59.5279	-179.017	-76.1609	-77.739	-178.265	-106.389	-55.3953	-159.907	-118.297	-36.8898	-167.04	-96.7634	-12.4712	-188.175	-116.672	-38.4946	-169.942	-118.928	-22.7819	-176.551	-96.2614	-0.377429	-219.887	-70.3862	-28.8073	-228.732	-58.5266	-4.04517	-203.052	-39.7327	-19.9313	
113	0.941667	-157.752	-38.2517	6.99077	-131.325	-60.1075	-0.0801378	-118.158	-87.2405	-14.2238	-127.891	-113.708	-23.195	-148.283	-55.5216	-65.0618	-129.898	-68.6535	-88.5985	-108.892	-83.3256	-99.3591	-148.589	-86.7549	-66.8532	-124.747	-93.1844	-53.6738	-156.657	-71.8003	-40.2631	-149.925	-100.52	-46.612	-132.513	-106.112	-25.1837	-151.632	-84.7477	-2.98062	-164.252	-112.042	-30.4703	-144.905	-110.796	-7.72018	-161.196	-89.2596	9.2724	-198.866	-69.8117	-30.2892	-218.707	-63.8391	-3.18919	-191.969	-37.6648	-15.4597	
114	0.95	-155.964	-30.4171	15.3978	-120.729	-50.8798	6.9756	-103.938	-74.9061	-3.39604	-109.478	-98.5112	-6.87762	-132.057	-48.8554	-57.8018	-108.727	-60.0374	-74.6249	-89.1767	-73.6018	-80.953	-132.885	-71.3422	-59.8699	-103.166	-84.9096	-51.0835	-110.298	-73.3122	-18.0549	-129.044	-94.272	-36.0727	-112.535	-94.8415	-14.4492	-132.262	-76.2227	6.36272	-143.944	-102.398	-21.8002	-124.463	-98.5171	-0.812348	-145.182	-83.0353	17.0783	-186.035	-71.0716	-20.9417	-203.985	-66.8207	-1.90536	-185.276	-37.943	-12.9704	
115	0.958333	-149.489	-24.7527	18.7383	-116.369	-38.1364	19.2259	-91.5118	-62.1666	10.0297	-94.6518	-87.2214	5.2286	-119.038	-41.5585	-48.039	-91.7504	-51.2175	-61.8918	-70.2859	-58.3658	-65.3441	-120.698	-66.2119	-52.6567	-87.1318	-75.621	-50.7492	-73.1677	-71.6064	-19.55	-117.811	-80.69	-26.4285	-98.3935	-80.8243	0.853116	-121.294	-65.1299	15.2036	-124.343	-96.0071	-11.0173	-112.405	-90.2855	12.7594	-135	-71.0657	24.0095	-172.309	-69.3231	-16.8317	-194.273	-61.8319	2.88538	-173.97	-30.9372	-9.49848	
116	0.966667	-148.056	-15.2547	25.8069	-109.051	-30.5516	24.5447	-87.3231	-48.9996	22.2217	-89.014	-77.2875	15.9659	-109.981	-35.9788	-37.7241	-85.3702	-43.5444	-47.7895	-58.0551	-49.5107	-51.06	-111.273	-57.7091	-42.0942	-76.4571	-60.8778	-45.6894	-50.3271	-66.8618	-21.7621	-109.195	-74.5237	-16.4698	-90.3896	-70.6701	9.68484	-115.474	-58.8152	26.9229	-115.727	-85.3151	-1.62877	-104.268	-81.3774	22.3243	-129.032	-65.7596	35.4021	-165.342	-60.8439	-13.3412	-189.808	-60.2104	6.8867	-172.098	-26.1773	-5.01155	
117	0.975	-147.309	-7.05593	28.7555	-106.577	-18.3201	30.941	-86.4526	-37.1555	28.8662	-83.2098	-64.0886	25.6064	-103.049	-31.8728	-32.5128	-76.1758	-33.9034	-39.0955	-51.0261	-40.73	-40.2258	-104.2	-51.3375	-33.5545	-73.6688	-55.2038	-36.0317	-42.6548	-57.4184	-25.271	-102.427	-63.6008	-7.87892	-85.5655	-61.0638	15.5275	-113.56	-48.6611	34.3982	-113.599	-80.8108	7.37305	-101.535	-70.0544	31.2685	-126.551	-53.8367	41.5983	-159.057	-58.8797	-8.47668	-186.772	-51.0915	13.4354	-168.145	-26.6377	-3.09288	
118	0.983333	-149.354	-3.39368	28.4583	-110.145	-10.4172	32.9166	-88.4487	-29.3495	31.636	-78.2144	-54.4514	33.0922	-101.094	-22.6876	-27.8163	-72.8924	-25.7993	-31.7165	-49.9571	-31.1833	-30.7832	-100.015	-42.3306	-26.3463	-71.2114	-42.5193	-28.6087	-37.7141	-45.2861	-21.8257	-97.1976	-59.642	1.6086	-86.1096	-53.4704	26.6596	-116.701	-38.7124	41.9544	-110.461	-72.0458	15.3649	-99.9567	-60.8484	38.5444	-125.713	-43.0766	46.6009	-159.94	-56.6579	-3.02035	-186.286	-50.5439	15.2683	-169.809	-18.3408	0.490326	
119	0.991667	-152.965	2.60575	28.5269	-113.732	0.371955	35.2635	-88.2223	-18.0977	36.0915	-82.3385	-44.7753	38.0906	-103.339	-14.6112	-22.1722	-75.3371	-17.2025	-25.0185	-47.7704	-21.4013	-22.3516	-96.9151	-38.4703	-21.1908	-66.1491	-36.6804	-21.5461	-34.3226	-35.5213	-16.4165	-97.5834	-50.5868	6.33525	-87.5351	-39.5813	33.5513	-117.079	-30.9144	46.8772	-108.848	-62.4812	21.3066	-103.083	-49.6439	45.336	-129.637	-33.812	48.5023	-156.349	-52.756	-2.92773	-184.584	-48.9242	14.8904	-172.221	-18.3812	0.109376	
120	1	-159.871	11.8487	29.0729	-124.606	7.93696	37.7295	-96.2091	-8.5153	40.4322	-86.5493	-29.0858	43.6073	-101.966	-11.4988	-19.3648	-77.773	-11.5416	-19.0217	-51.4468	-11.0278	-17.7323	-100.872	-31.7667	-15.7204	-68.621	-27.0077	-15.8348	-39.9607	-25.389	-9.5801	-103.169	-41.0303	8.83555	-89.7682	-31.6701	36.2125	-123.276	-22.059	49.9344	-108.765	-51.6817	25.8939	-106.601	-35.7537	48.4628	-130.694	-27.4565	55.0004	-160.49	-48.4586	2.17445	-186.765	-45.2888	17.0459	-170.774	-11.4402	-2.07192	
121	1.00833	-164.922	17.1806	27.7312	-130.886	16.7309	38.9814	-100.911	3.03796	41.6651	-87.5022	-23.7012	44.8257	-106.063	-6.32661	-16.5391	-80.9794	-4.31668	-16.8621	-51.9537	-4.71397	-12.2082	-98.3043	-23.8618	-13.9515	-74.6652	-16.5995	-13.8378	-43.4745	-16.1459	-6.65813	-104.26	-36.841	14.4222	-95.2552	-25.3409	41.4296	-126.149	-15.5217	51.7233	-112.99	-48.2686	28.5128	-109.438	-31.4729	52.013	-137.398	-22.292	56.3924	-158.639	-42.7261	1.86686	-190.507	-42.6818	17.6245	-177.438	-10.5586	-2.05078	
122	1.01667	-174.578	16.3436	26.76	-137.043	21.8535	35.1043	-104.198	12.5491	41.269	-92.5001	-12.0299	44.9713	-109.415	1.19915	-18.1183	-87.0061	5.40688	-17.2438	-61.9604	10.0861	-14.2985	-103.447	-16.9376	-13.8692	-76.6578	-8.02995	-12.0693	-45.4998	1.00687	-4.69624	-105.2	-27.9361	16.0453	-100.148	-14.6813	43.2049	-130.381	-8.12792	52.2366	-112.044	-38.6929	32.215	-113.989	-22.083	51.3351	-142.631	-12.4295	51.992	-159.468	-42.2902	2.09553	-192.974	-42.0445	14.4218	-181.676	-7.32607	-3.01365	
123	1.025	-179.782	23.083	21.8065	-142.932	29.4425	31.8899	-114.055	20.4253	38.1515	-98.3541	2.27752	46.4793	-118.232	10.8623	-19.6998	-88.939	14.5482	-17.6637	-63.7637	23.5272	-11.9242	-107.938	-7.52077	-13.7321	-80.2074	-0.402028	-9.23058	-53.0471	14.7589	-1.76742	-112.673	-17.9507	13.1524	-106.103	-3.701	42.3062	-138.925	2.34607	49.703	-119.088	-31.6234	29.4595	-119.814	-11.0038	49.799	-147.757	-7.15409	55.731	-165.862	-39.1428	3.97143	-192.843	-38.5734	12.7457	-187.707	-10.6723	-3.1515	
124	1.03333	-188.406	21.7502	18.5496	-155.882	33.1237	28.7774	-122.645	33.0089	35.5499	-107.102	15.1428	44.0207	-124.278	14.3813	-18.4313	-99.0816	22.9385	-16.1536	-74.5239	34.5422	-10.7102	-113.884	1.50332	-13.6683	-85.0438	12.7972	-7.46182	-61.3875	30.5102	1.11475	-115.308	-10.5907	14.8571	-110.192	8.6919	38.9539	-146.308	12.115	46.083	-120.765	-24.0287	32.2427	-124.865	-1.1553	50.0263	-154.665	1.07583	52.6047	-164.461	-33.8982	0.952512	-195.635	-42.2699	14.4559	-191.471	-10.0736	-3.59435	
125	1.04167	-197.795	20.7556	13.6673	-168.662	40.7068	24.2167	-136.805	42.9009	31.0852	-115.749	28.169	38.9093	-133.326	21.2872	-22.3471	-109.363	35.3867	-20.9491	-85.6737	48.3603	-13.298	-115.774	10.5129	-14.8012	-93.1147	25.3795	-8.8237	-70.5342	46.5158	2.23856	-117.936	-0.395891	13.525	-121.329	23.3875	37.1241	-153.34	16.5152	44.9018	-123.085	-13.4601	30.1543	-127.77	10.1686	46.8576	-157.342	8.09544	51.0685	-163.559	-34.4565	2.95144	-191.518	-42.7899	12.9824	-193.78	-12.6568	-6.81772	
